<?xml version="1.0" encoding="UTF-8"?>
<!-- Generator: visioncortex VTracer -->
<svg id="svg" version="1.1" xmlns="http://www.w3.org/2000/svg" style="display: block;" viewBox="0 0 2508 2508"><path d="M0 0 C2.55621094 0.28617188 5.11242188 0.57234375 7.74609375 0.8671875 C27.62763069 3.21532412 47.29674132 6.47466205 67 10 C68.8665625 10.31582031 70.733125 10.63164062 72.65625 10.95703125 C102.0925672 16.02507643 131.2501898 22.94293445 160 31 C162.19785156 31.60070312 164.39570312 32.20140625 166.66015625 32.8203125 C195.51831936 40.8448628 224.10261751 50.08826598 252 61 C254.07667969 61.79277344 256.15335938 62.58554688 258.29296875 63.40234375 C300.83021561 79.87716563 343.97157775 98.22003963 383 122 C386.05882232 123.77717836 389.12130792 125.54806722 392.1875 127.3125 C405.74141259 135.15448226 419.01677446 143.23632276 432 152 C434.51625 153.670625 437.0325 155.34125 439.625 157.0625 C459.73262775 170.52438638 479.17428722 184.7946166 498 200 C499.815 201.464375 501.63 202.92875 503.5 204.4375 C508.79651746 208.83120199 513.90856635 213.37142396 519 218 C520.32 219.155 521.64 220.31 523 221.5 C527.7089543 225.62033502 532.3491582 229.81424238 537 234 C538.76150391 235.50240234 538.76150391 235.50240234 540.55859375 237.03515625 C546.27110836 242.13471854 551.65132988 247.51959538 557.0625 252.9375 C559.13660156 255.00902344 561.21070313 257.08054687 563.34765625 259.21484375 C567.73681417 263.70713323 571.91627725 268.23650863 576 273 C577.93875 275.083125 579.8775 277.16625 581.875 279.3125 C590.02127005 288.20689689 597.46935065 297.58668831 605 307 C606.65 308.98 608.3 310.96 610 313 C610 313.66 610 314.32 610 315 C610.66 315 611.32 315 612 315 C626.34061815 332.20874178 607.16969166 319.23329673 601 313 C596.37412298 309.28200538 591.70408964 305.61853049 587 302 C584.36934376 299.86110462 581.74449369 297.71505162 579.125 295.5625 C565.85146605 284.75459844 552.01596055 274.81117239 538 265 C536.35 263.824375 534.7 262.64875 533 261.4375 C505.98154462 242.86231192 477.45084247 225.41864163 448 211 C445.525 209.741875 443.05 208.48375 440.5 207.1875 C427.20032316 200.63545332 413.69214873 194.68041494 400 189 C398.05867188 188.17242187 396.11734375 187.34484375 394.1171875 186.4921875 C358.76316017 171.66915977 321.74340973 160.74186821 284 154 C280.1946875 153.2575 280.1946875 153.2575 276.3125 152.5 C268.21339271 151.03850695 260.17281253 149.96150736 252 149 C250.26621094 148.7628125 248.53242187 148.525625 246.74609375 148.28125 C215.0355666 144.01621609 181.87802496 141.42463932 150 145 C146.60491048 145.14379203 143.20894768 145.26798514 139.8125 145.375 C120.63751737 145.98693225 120.63751737 145.98693225 102 150 C100.2675 150.12375 98.535 150.2475 96.75 150.375 C89.32774806 151.06224555 82.29698597 152.47272387 75 154 C71.82375 154.556875 68.6475 155.11375 65.375 155.6875 C34.37869809 161.60964853 4.10597134 171.94181187 -25 184 C-26.67320312 184.66773438 -28.34640625 185.33546875 -30.0703125 186.0234375 C-59.3542254 197.7648479 -88.25916307 212.67636852 -114 231 C-116.93226194 232.94541831 -119.86964269 234.88314691 -122.8125 236.8125 C-130.47082918 241.90326021 -137.7735306 247.30641805 -145 253 C-148.3103125 255.5059375 -148.3103125 255.5059375 -151.6875 258.0625 C-157.367187 262.50502745 -162.67101026 267.14925293 -168 272 C-171.65590338 275.01310718 -175.32179256 278.01416102 -179 281 C-186.16666667 286.83333333 -186.16666667 286.83333333 -192 294 C-194.64386361 296.35913984 -197.30966387 298.6939976 -200 301 C-219.5771362 320.5771362 -237.95303079 342.76570931 -253 366 C-254.1240625 367.69125 -255.248125 369.3825 -256.40625 371.125 C-269.63991573 391.13688476 -282.52814579 411.89900684 -292 434 C-293.01513672 436.33384766 -293.01513672 436.33384766 -294.05078125 438.71484375 C-313.80101595 484.32117155 -325.92861437 530.744396 -332 580 C-332.33 582.64 -332.66 585.28 -333 588 C-337.68020938 665.48346637 -323.43926003 742.1151023 -290.41796875 812.50390625 C-246.677657 911.92655347 -275.36973302 1048.14759393 -358 1120 C-359.794375 1121.85625 -361.58875 1123.7125 -363.4375 1125.625 C-370.84406128 1132.81994524 -378.67976108 1138.91382326 -387 1145 C-389.4440625 1146.794375 -389.4440625 1146.794375 -391.9375 1148.625 C-418.43039233 1166.28692822 -446.23319493 1180.52095923 -477 1189 C-479.18625 1189.70125 -481.3725 1190.4025 -483.625 1191.125 C-553.89071606 1211.79138708 -634.83392494 1199.47653863 -701 1171 C-702.794375 1170.29875 -704.58875 1169.5975 -706.4375 1168.875 C-715.88369549 1164.73666674 -724.91141864 1159.86502174 -734 1155 C-735.93875 1153.96875 -737.8775 1152.9375 -739.875 1151.875 C-756.81370383 1142.37280029 -772.54000565 1131.72666906 -788 1120 C-790.10375 1118.4325 -792.2075 1116.865 -794.375 1115.25 C-810 1103.44444444 -810 1103.44444444 -810 1101 C-811.32 1100.34 -812.64 1099.68 -814 1099 C-817.6880461 1095.35483816 -821.35364681 1091.68686822 -825 1088 C-826.98 1086.35 -828.96 1084.7 -831 1083 C-833.34584169 1080.34433016 -835.67783289 1077.67639599 -838 1075 C-840.165625 1072.8653125 -840.165625 1072.8653125 -842.375 1070.6875 C-847.29355256 1065.70248051 -851.61875257 1060.46155502 -856 1055 C-858.5059375 1052.03 -858.5059375 1052.03 -861.0625 1049 C-865.61534622 1043.46742738 -869.84315966 1037.83298563 -874 1032 C-875.2375 1030.329375 -876.475 1028.65875 -877.75 1026.9375 C-900.3924031 995.30473096 -919.41829767 961.08971327 -934 925 C-934.6290625 923.4634375 -935.258125 921.926875 -935.90625 920.34375 C-941.81769004 905.78572603 -946.73393872 891.12512635 -951 876 C-951.928125 873.050625 -952.85625 870.10125 -953.8125 867.0625 C-970.23934385 812.0989442 -973.54054369 755.01448958 -973 698 C-972.98324219 695.85628906 -972.96648437 693.71257813 -972.94921875 691.50390625 C-972.00393126 650.42441261 -965.40488032 608.91978615 -956 569 C-955.57332031 567.16050781 -955.14664062 565.32101562 -954.70703125 563.42578125 C-941.98781321 510.51810956 -922.90449269 458.88138767 -897 411 C-895.88625 408.89625 -894.7725 406.7925 -893.625 404.625 C-885.28033288 389.37440146 -876.59278939 374.50072815 -867 360 C-864.40125 356.0709375 -864.40125 356.0709375 -861.75 352.0625 C-845.49118552 327.88821005 -827.69923645 304.49007612 -808 283 C-806.2675 281.02 -806.2675 281.02 -804.5 279 C-795.97611526 269.25841744 -787.10443144 259.95046799 -777.9375 250.8125 C-776.70966797 249.58080078 -775.48183594 248.34910156 -774.21679688 247.08007812 C-768.30740954 241.17705523 -762.35632139 235.41908109 -756 230 C-753.916875 228.06125 -751.83375 226.1225 -749.6875 224.125 C-743.93062772 218.85235062 -738.07222563 213.89918205 -732 209 C-729.875625 207.185 -727.75125 205.37 -725.5625 203.5 C-719.51197645 198.42908503 -713.35225066 193.68398281 -707 189 C-704.504375 187.1025 -702.00875 185.205 -699.4375 183.25 C-652.86514749 148.37570771 -601.84042951 118.28955227 -549 94 C-545.4421875 92.329375 -545.4421875 92.329375 -541.8125 90.625 C-454.90014522 50.29766738 -363.50273547 21.82348739 -269 6 C-266.96199219 5.63261719 -264.92398438 5.26523438 -262.82421875 4.88671875 C-231.16047334 -0.73419288 -199.059299 -2.98908912 -167 -5 C-164.06996094 -5.18691406 -161.13992188 -5.37382812 -158.12109375 -5.56640625 C-105.5609228 -8.22161649 -52.26852893 -5.98516785 0 0 Z " transform="translate(1374,148)" style="fill: #029159;"/><path d="M0 0 C3.898125 1.918125 3.898125 1.918125 7.875 3.875 C16.48435672 8.24590418 24.71608244 13.04174277 33 18 C35.660625 19.52625 38.32125 21.0525 41.0625 22.625 C52.36064479 29.25606068 63.14917148 36.66901519 74 44 C75.98 45.32 77.96 46.64 80 48 C90.909381 55.706336 101.5384074 63.6922647 112 72 C114.64 73.98 117.28 75.96 120 78 C124.01058416 81.32059119 128.00992844 84.65478849 132 88 C133.815 89.464375 135.63 90.92875 137.5 92.4375 C143.52586205 97.43622647 149.26087773 102.67504119 155 108 C162.86461824 115.25730576 162.86461824 115.25730576 170.87475586 122.35180664 C174.98119046 125.98336563 178.87631613 129.74687817 182.75390625 133.62109375 C184.18541016 135.05130859 185.61691406 136.48152344 187.09179688 137.95507812 C188.56712891 139.43427734 190.04246094 140.91347656 191.5625 142.4375 C193.04169922 143.91283203 194.52089844 145.38816406 196.04492188 146.90820312 C197.47513672 148.33970703 198.90535156 149.77121094 200.37890625 151.24609375 C201.6738501 152.54216553 202.96879395 153.8382373 204.30297852 155.17358398 C208.00825538 159.00854431 211.50431039 162.97410877 215 167 C217.10375 169.248125 219.2075 171.49625 221.375 173.8125 C226.8332512 179.73418763 231.97310019 185.71637523 237 192 C241.87848569 197.99356814 246.79613755 203.93310745 251.8125 209.8125 C257 216 257 216 261 222 C263.06662918 224.74183739 265.15154119 227.46994612 267.25 230.1875 C277.22738224 243.18799584 286.62291053 256.56338138 296 270 C297.20398437 271.70027344 298.40796875 273.40054687 299.6484375 275.15234375 C304.09317254 281.5811505 308.02093645 288.27482217 312 295 C312.99 296.65 313.98 298.3 315 300 C315.99 301.65 316.98 303.3 318 305 C319.4025 307.31 320.805 309.62 322.25 312 C327.34135506 320.57491378 332.21436906 329.25243846 337 338 C338.62228516 340.96419922 338.62228516 340.96419922 340.27734375 343.98828125 C378.02912474 413.30798907 405.73727018 486.79097799 426 563 C426.51820312 564.91296875 427.03640625 566.8259375 427.5703125 568.796875 C442.4574227 625.80178944 451.54802173 685.18231195 455 744 C455.18433594 746.97386719 455.36867188 749.94773437 455.55859375 753.01171875 C462.11651884 867.13744482 449.96387275 980.54150391 421 1091 C420.09507812 1094.48046875 420.09507812 1094.48046875 419.171875 1098.03125 C410.09661457 1131.68901199 398.13271128 1164.72469262 385 1197 C384.36191406 1198.61003906 383.72382813 1200.22007813 383.06640625 1201.87890625 C379.2489001 1211.33968237 375.09369397 1220.65623627 371 1230 C370.29101562 1231.62808594 369.58203125 1233.25617188 368.8515625 1234.93359375 C361.94480527 1250.67171843 354.05746564 1265.83300586 346 1281 C344.68 1283.64 343.36 1286.28 342 1289 C335.89426823 1300.1531367 329.59744423 1311.12815529 323 1322 C321.453125 1324.59875 319.90625 1327.1975 318.3125 1329.875 C314.99168734 1335.36156005 311.58904252 1340.69120795 308 1346 C306.535625 1348.289375 305.07125 1350.57875 303.5625 1352.9375 C299.82313637 1358.72583001 295.96970666 1364.37023419 292 1370 C290.783125 1371.85625 289.56625 1373.7125 288.3125 1375.625 C279.80563368 1388.20036761 270.41398906 1400.09725521 261 1412 C259.205625 1414.330625 257.41125 1416.66125 255.5625 1419.0625 C249.98857712 1426.01424651 244.06603641 1432.4773802 238 1439 C236.741875 1440.588125 235.48375 1442.17625 234.1875 1443.8125 C202.55421687 1483 202.55421687 1483 195 1483 C194.34 1484.32 193.68 1485.64 193 1487 C185.59840957 1493.97251273 177.76638011 1500.44004787 170 1507 C163.53419391 1512.57336671 163.53419391 1512.57336671 158 1519 C147.02009356 1516.80401871 159.81430514 1506.01014991 164 1501 C169.21439378 1495.09793296 169.21439378 1495.09793296 173 1488 C174.98 1485.36 176.96 1482.72 179 1480 C183.90321939 1473.13549285 188.50160885 1466.13537907 193 1459 C194.36125 1456.916875 195.7225 1454.83375 197.125 1452.6875 C202.2204104 1444.65242976 207.07269909 1436.50245674 211.88671875 1428.296875 C213.95084386 1424.78501346 216.0392187 1421.28728516 218.15234375 1417.8046875 C222.15325048 1411.05418643 225.53341752 1404.03821291 229 1397 C230.299375 1394.421875 231.59875 1391.84375 232.9375 1389.1875 C241.28352066 1372.36705837 248.93013603 1355.39928368 256 1338 C256.96550781 1335.64617187 257.93101562 1333.29234375 258.92578125 1330.8671875 C304.64890712 1213.85781584 313.05233029 1084.97952996 284 963 C283.55527344 961.11023437 283.11054688 959.22046875 282.65234375 957.2734375 C279.92483726 945.99506662 276.57330596 935.03064015 273 924 C272.46375 922.185 271.9275 920.37 271.375 918.5 C264.73541375 896.77044501 255.6254174 875.558192 246 855 C245.14792969 853.15148438 244.29585937 851.30296875 243.41796875 849.3984375 C235.69891505 832.90020256 227.11112228 817.15264019 217 802 C216.113125 800.329375 215.22625 798.65875 214.3125 796.9375 C210.03589929 789.27189496 205.04669686 782.16815429 200 775 C198.51886719 772.8653125 198.51886719 772.8653125 197.0078125 770.6875 C187.08848547 756.46550384 176.32456724 743.13167903 165 730 C163.69160156 728.34613281 162.38320312 726.69226562 161.03515625 724.98828125 C154.92498482 717.72149087 148.30221703 711.0487435 141.5625 704.375 C140.28439453 703.09753906 139.00628906 701.82007813 137.68945312 700.50390625 C132.34246168 694.59076264 132.34246168 694.59076264 126 690 C126 689.34 126 688.68 126 688 C124.68 687.34 123.36 686.68 122 686 C118.98492561 683.35038917 115.98728795 680.68089944 113 678 C106.73557604 672.91015553 100.38483879 667.93760866 94 663 C91.89625 661.35 89.7925 659.7 87.625 658 C81.8840995 653.66724491 76.09638439 649.80127497 70 646 C68.535625 644.948125 67.07125 643.89625 65.5625 642.8125 C44.74749901 628.54603865 22.22239028 616.80945796 -1 607 C-3.01996094 606.04867187 -5.03992187 605.09734375 -7.12109375 604.1171875 C-45.47810693 586.7356449 -87.29497149 577.33623323 -129 573 C-131.34907471 572.74077759 -131.34907471 572.74077759 -133.74560547 572.47631836 C-146.44315629 571.14844277 -158.98659785 570.64951202 -171.75 570.6875 C-173.6983374 570.69168945 -175.6466748 570.69587891 -177.65405273 570.70019531 C-201.47774789 570.88392812 -224.72421715 572.84607665 -248 578 C-250.18625 578.33 -252.3725 578.66 -254.625 579 C-278.52178041 582.74851457 -301.09102217 590.18731217 -323.6875 598.5625 C-373.45982633 616.91981369 -423.66916576 622.68098979 -476 611 C-478.536875 610.484375 -481.07375 609.96875 -483.6875 609.4375 C-502.26352291 604.57531951 -520.05031935 598.05931207 -537 589 C-539.68125 587.700625 -542.3625 586.40125 -545.125 585.0625 C-552.772434 581.11739516 -559.84437177 576.77041882 -567 572 C-569.165625 570.6078125 -569.165625 570.6078125 -571.375 569.1875 C-625.93509584 531.58527179 -670.91048437 473.13555541 -689 409 C-689.86625 406.23625 -690.7325 403.4725 -691.625 400.625 C-692.800625 396.850625 -692.800625 396.850625 -694 393 C-694.515625 391.4325 -695.03125 389.865 -695.5625 388.25 C-721.5533702 293.32682188 -699.89898991 188.63289142 -645 108 C-643.700625 105.999375 -642.40125 103.99875 -641.0625 101.9375 C-636.99620657 95.99445576 -632.61440706 90.52429015 -628 85 C-626.845 83.494375 -625.69 81.98875 -624.5 80.4375 C-620.54064279 75.41760068 -616.30604717 70.72469064 -612 66 C-611.00484375 64.8346875 -610.0096875 63.669375 -608.984375 62.46875 C-603.77345198 56.62434222 -598.27825077 51.10740212 -592.75 45.5625 C-590.62046875 43.41878906 -588.4909375 41.27507812 -586.296875 39.06640625 C-580.72898558 33.70230434 -575.0560879 28.79615933 -569 24 C-566.2465625 21.7415625 -566.2465625 21.7415625 -563.4375 19.4375 C-559 16 -559 16 -557 16 C-557 15.34 -557 14.68 -557 14 C-554.1992694 11.92583138 -551.33095994 9.94271895 -548.4375 8 C-546.68566406 6.82308594 -544.93382812 5.64617187 -543.12890625 4.43359375 C-540.59009766 2.73396484 -540.59009766 2.73396484 -538 1 C-534.473125 -1.4440625 -534.473125 -1.4440625 -530.875 -3.9375 C-505.70834495 -20.11606396 -478.92704059 -33.3316095 -451 -44 C-448.14408203 -45.15048828 -448.14408203 -45.15048828 -445.23046875 -46.32421875 C-301.79002864 -102.4208356 -132.40929008 -70.61828804 0 0 Z " transform="translate(1861,460)" style="fill: #097DF1;"/><path d="M0 0 C1.98 1.60875 3.96 3.2175 6 4.875 C11 9 11 9 16 14 C17.464375 15.299375 18.92875 16.59875 20.4375 17.9375 C30.76081676 27.33287817 40.31247971 37.0747851 49 48 C50.299375 49.44375 51.59875 50.8875 52.9375 52.375 C76.52728561 79.23106362 94.80934773 110.31258055 111 142 C112.2375 144.3925 113.475 146.785 114.75 149.25 C168.68980597 261.27882778 176.32807557 392.68661414 147.30078125 512.62109375 C146.27289835 516.87152844 145.36453333 521.15085557 144.5 525.4375 C142.8857826 532.49970113 140.76699747 539.33458132 138.53125 546.22265625 C137.14751176 550.53977837 135.87915327 554.89346761 134.625 559.25 C129.55761414 576.14128619 123.46084322 592.59939797 117 609 C116.29875 610.93875 115.5975 612.8775 114.875 614.875 C110.23318951 627.56261535 104.42910204 639.62768845 98.5 651.75 C97.60941895 653.57208984 96.71883789 655.39417969 95.80126953 657.27148438 C79.3002765 690.85245265 60.69792395 723.4758019 39 754 C38.10410156 755.28777344 37.20820312 756.57554687 36.28515625 757.90234375 C27.08966253 771.07426719 17.17896967 783.57566938 7 796 C5.845 797.505625 4.69 799.01125 3.5 800.5625 C-0.45842122 805.58121261 -4.71803551 810.25512043 -9 815 C-10.485 816.835625 -11.97 818.67125 -13.5 820.5625 C-17.7559338 825.70508667 -22.25018111 830.31803567 -27 835 C-27.95132812 836.11117187 -28.90265625 837.22234375 -29.8828125 838.3671875 C-35.75340924 844.97300129 -42.00495183 851.18929458 -48.25 857.4375 C-49.50941406 858.70916016 -50.76882813 859.98082031 -52.06640625 861.29101562 C-59.07469334 868.31021905 -66.25018955 874.81624549 -74 881 C-75.65 882.65 -77.3 884.3 -79 886 C-83 890 -83 890 -85 890 C-85 890.66 -85 891.32 -85 892 C-90.85113835 896.98137454 -96.88959872 901.69725305 -102.9375 906.4375 C-107.30074183 909.8740356 -111.62311536 913.36410759 -115.875 916.9375 C-126.79649597 925.96445075 -138.16903708 934.19936511 -150 942 C-152.6296875 943.918125 -152.6296875 943.918125 -155.3125 945.875 C-162.08095715 950.7839909 -169.02495995 955.39040831 -176 960 C-177.98 961.32 -179.96 962.64 -182 964 C-191.58455764 969.85198595 -201.24967235 975.57092862 -210.9375 981.25 C-215.93064398 984.19169723 -220.89559453 987.18257273 -225.8125 990.25 C-231.76212345 993.85583239 -237.75529866 996.93887189 -244 1000 C-246.805 1001.485 -249.61 1002.97 -252.5 1004.5 C-276.28375141 1017.04673558 -300.38735369 1028.28854578 -325.22265625 1038.578125 C-329.98663279 1040.57519427 -334.71708545 1042.65203798 -339.4375 1044.75 C-347.51802062 1048.22262043 -355.68856786 1051.12766683 -364 1054 C-366.41957031 1054.91910156 -368.83914063 1055.83820313 -371.33203125 1056.78515625 C-380.54958093 1060.20383286 -389.83748564 1063.34364221 -399.1875 1066.375 C-400.93385742 1066.94154297 -402.68021484 1067.50808594 -404.47949219 1068.09179688 C-428.05141337 1075.66833156 -451.93459894 1082.07344754 -476.0625 1087.625 C-479.72988528 1088.47428922 -483.38211247 1089.39735734 -487 1090.4375 C-495.91085599 1092.75803541 -504.94683663 1094.33635596 -514 1096 C-525.52043598 1098.14786773 -525.52043598 1098.14786773 -537 1100.5 C-545.70945088 1102.13302204 -554.40413941 1103.23197682 -563.203125 1104.25390625 C-566.88512355 1104.72780229 -570.55696929 1105.29806844 -574.203125 1105.99609375 C-581.61424462 1107.27955584 -589.00496808 1107.87766883 -596.5 1108.5 C-605.51301471 1109.25381578 -614.49866357 1110.05542987 -623.48828125 1111.0546875 C-679.030671 1116.57471145 -737.60027086 1114.28654572 -793 1109 C-795.03285156 1108.81179688 -797.06570313 1108.62359375 -799.16015625 1108.4296875 C-806.62510807 1107.69885306 -813.66059614 1106.63097864 -821 1105 C-824.43370688 1104.57251039 -827.87185509 1104.17999541 -831.3125 1103.8125 C-872.91445075 1098.7652045 -915.13580283 1088.92149839 -955 1076 C-959.7025 1074.700625 -959.7025 1074.700625 -964.5 1073.375 C-985.3329371 1067.48034914 -1005.93688453 1060.33905288 -1025.94921875 1052.07421875 C-1034.84513444 1048.42090767 -1043.8315498 1044.99440972 -1052.796875 1041.515625 C-1059 1039 -1059 1039 -1067 1035 C-1070.99291826 1033.23390154 -1074.99365382 1031.48542223 -1079 1029.75 C-1088.82707099 1025.43858562 -1098.45782645 1020.91788945 -1108 1016 C-1110.13984375 1014.90300781 -1112.2796875 1013.80601563 -1114.484375 1012.67578125 C-1126.13345291 1006.67918261 -1137.68431203 1000.61015436 -1149 994 C-1152.8671875 991.8653125 -1152.8671875 991.8653125 -1156.8125 989.6875 C-1163.97091189 985.58917258 -1170.86464218 981.29278544 -1177.75390625 976.76953125 C-1181.9435406 974.03682587 -1186.19045855 971.39260357 -1190.4375 968.75 C-1196.44075125 964.97936285 -1202.24582256 961.13120432 -1208 957 C-1210.145 955.47375 -1212.29 953.9475 -1214.5 952.375 C-1216.975 950.60125 -1219.45 948.8275 -1222 947 C-1223.48886719 945.93910156 -1224.97773437 944.87820313 -1226.51171875 943.78515625 C-1239.55256862 934.44847427 -1251.75742661 924.35910056 -1264 914 C-1265.93875 912.4325 -1267.8775 910.865 -1269.875 909.25 C-1275 905 -1275 905 -1282 898 C-1285.99829721 894.44595804 -1290.04596364 890.96100055 -1294.125 887.5 C-1298 884 -1298 884 -1304 877 C-1306.31 875.02 -1308.62 873.04 -1311 871 C-1311 870.34 -1311 869.68 -1311 869 C-1311.66 869 -1312.32 869 -1313 869 C-1314.794375 866.7415625 -1314.794375 866.7415625 -1316.625 864.4375 C-1320.47801179 859.64875678 -1324.28708356 855.90034464 -1329 852 C-1339.84532784 841.15467216 -1314.17579325 855.32631288 -1312 857 C-1307.52441255 859.86742386 -1302.98723714 862.60751822 -1298.42578125 865.3359375 C-1294.48542517 867.70780232 -1290.6121992 870.19038845 -1286.75 872.6875 C-1268.89401279 884.09549183 -1249.96413407 893.5937895 -1231 903 C-1228.6075 904.2375 -1226.215 905.475 -1223.75 906.75 C-1171.67660083 932.04279388 -1116.77932062 948.50035678 -1060 959 C-1057.03 959.556875 -1054.06 960.11375 -1051 960.6875 C-928.2289525 978.59161109 -799.39113963 953.21921163 -694 887 C-692.26621094 885.92105469 -690.53242187 884.84210937 -688.74609375 883.73046875 C-673.17687557 873.96134001 -658.52930019 863.25308544 -644 852 C-641.834375 850.370625 -639.66875 848.74125 -637.4375 847.0625 C-630.98227538 841.98606122 -624.99932132 836.60376167 -619 831 C-617.700625 829.865625 -616.40125 828.73125 -615.0625 827.5625 C-600.65447131 814.92776715 -587.26080217 801.7129626 -575 787 C-573.68 785.68 -572.36 784.36 -571 783 C-567.97654118 779.35265285 -564.98192125 775.68138426 -562 772 C-559.9375 769.504375 -557.875 767.00875 -555.75 764.4375 C-538.84098423 743.60212001 -524.61460744 721.08301661 -511 698 C-508.7725 694.225625 -508.7725 694.225625 -506.5 690.375 C-448.23721163 581.94147721 -426.75341072 453.32757132 -466.0703125 334.82421875 C-467.41460527 330.76684927 -468.68951367 326.68611057 -469.91015625 322.58984375 C-472.05031179 315.84135328 -474.58622133 309.40727166 -477.3125 302.875 C-513.21555524 215.47752291 -510.25200943 119.7528132 -454 41 C-452.39125 38.69 -450.7825 36.38 -449.125 34 C-444.68919877 27.94134466 -440.11226106 22.48271476 -435 17 C-433.88625 15.72125 -432.7725 14.4425 -431.625 13.125 C-424.4455546 4.95528627 -417.33183927 -2.9906749 -409 -10 C-406.834375 -12.041875 -406.834375 -12.041875 -404.625 -14.125 C-289.72409492 -113.7057844 -110.96188272 -97.83735896 0 0 Z " transform="translate(1904,1229)" style="fill: #F3682B;"/><path d="M0 0 C-2.08420723 4.2934669 -4.08486541 8.62849714 -6 13 C-10 22 -10 22 -12.04296875 26.48046875 C-23.1916285 50.95066001 -33.46272618 75.85090471 -40 102 C-41.27046034 106.66676822 -42.54134343 111.33342137 -43.8125 116 C-49.97221182 139.12671587 -54.23617218 162.37372644 -58 186 C-58.33644531 187.96582031 -58.67289063 189.93164062 -59.01953125 191.95703125 C-61.58985036 210.42031949 -62.3909614 228.87696021 -62.6875 247.5 C-62.72584961 249.7783374 -62.76419922 252.0566748 -62.80371094 254.40405273 C-63.17833101 280.50969336 -62.35872397 306.09414694 -59 332 C-58.72285156 334.2996875 -58.44570313 336.599375 -58.16015625 338.96875 C-51.8159806 388.85085208 -38.05559938 436.58889091 -19 483 C-18.19304687 484.97613281 -17.38609375 486.95226563 -16.5546875 488.98828125 C-12.0852346 499.50584702 -7.0012085 509.72741722 -2 520 C-1.15953125 521.74667969 -0.3190625 523.49335937 0.546875 525.29296875 C8.29917578 541.16491789 17.14225359 556.34411973 27 571 C28.77375 573.76375 30.5475 576.5275 32.375 579.375 C36.70959802 586.08512197 41.23048065 592.58851498 46 599 C47.258125 600.753125 48.51625 602.50625 49.8125 604.3125 C61.34377452 619.97438032 73.88039121 634.65589439 87 649 C91.37924016 653.96313885 95.69207457 658.974087 100 664 C101.65 665.32 103.3 666.64 105 668 C109 672 109 672 109 674 C110.32 674.66 111.64 675.32 113 676 C115.66666667 678.66666667 118.33333333 681.33333333 121 684 C123.98708693 686.34984172 126.98594223 688.68485418 130 691 C132.475 693.475 132.475 693.475 135 696 C144.97215933 704.87430692 155.20736617 713.137083 166 721 C167.52625 722.12019531 169.0525 723.24039063 170.625 724.39453125 C178.59656624 730.20713164 186.58686539 735.83739467 195 741 C197.76375 742.711875 200.5275 744.42375 203.375 746.1875 C258.93141126 780.00444598 319.70187198 803.57509431 384 814 C385.8046875 814.31710937 387.609375 814.63421875 389.46875 814.9609375 C415.75298001 819.35614815 442.43160288 819.38009152 469 819 C471.07410156 818.98195313 473.14820313 818.96390625 475.28515625 818.9453125 C524.32418448 817.79304784 572.83333593 804.85807376 617.9140625 786.11328125 C622.92589018 784.03079371 627.95741985 782.00674108 633 780 C634.64097656 779.319375 636.28195312 778.63875 637.97265625 777.9375 C713.76251565 748.7286653 807.568546 763.34767759 872 812 C873.505625 813.134375 875.01125 814.26875 876.5625 815.4375 C882.47130581 820.18118917 888.23910467 825.07807001 894 830 C895.381875 831.155 896.76375 832.31 898.1875 833.5 C906.62526623 841.24614605 913.84555698 850.08144774 921 859 C922.815 861.248125 924.63 863.49625 926.5 865.8125 C938.69823839 881.75337971 948.15807009 899.02624083 957 917 C957.82242187 918.58683594 958.64484375 920.17367187 959.4921875 921.80859375 C966.98880177 937.3272859 971.58173912 954.38296937 976 971 C976.67160156 973.49175781 977.34320312 975.98351563 978.03515625 978.55078125 C1001.41704409 1079.09754745 968.87057456 1190.83923392 908 1272 C906.618125 1273.876875 905.23625 1275.75375 903.8125 1277.6875 C898.75226568 1284.32495021 893.42103468 1290.65492531 888 1297 C886.03740234 1299.48080078 886.03740234 1299.48080078 884.03515625 1302.01171875 C878.03797969 1309.14412501 871.55321914 1315.70047289 864.9375 1322.25 C863.70966797 1323.4771875 862.48183594 1324.704375 861.21679688 1325.96875 C832.33593146 1354.70964354 798.6808031 1377.540495 763 1397 C760.215625 1398.52625 757.43125 1400.0525 754.5625 1401.625 C740.74766948 1408.68367253 726.40530471 1414.26455461 712 1420 C709.69 1420.99 707.38 1421.98 705 1423 C701.59523956 1424.01979646 698.17717587 1424.99577602 694.75 1425.9375 C689.14514594 1427.505156 683.71132382 1429.10668468 678.25 1431.125 C670.94688643 1433.73325485 663.5730068 1435.3171096 656 1437 C654.0715625 1437.46535156 652.143125 1437.93070313 650.15625 1438.41015625 C635.70291157 1441.75805633 621.27879813 1444.04983089 606.5625 1445.8125 C604.84554932 1446.01931396 603.12859863 1446.22612793 601.35961914 1446.43920898 C581.92036956 1448.64870051 562.55127548 1449.16636377 543 1449.125 C540.25816406 1449.13080078 540.25816406 1449.13080078 537.4609375 1449.13671875 C509.37112894 1449.11685326 481.67393252 1446.97732599 454 1442 C452.33453125 1441.73703125 450.6690625 1441.4740625 448.953125 1441.203125 C431.73427277 1438.42274376 414.9003512 1434.27980117 398 1430 C395.75574219 1429.443125 393.51148438 1428.88625 391.19921875 1428.3125 C374.08191313 1423.91423 357.57539493 1418.10672445 341 1412 C338.1125 1410.948125 335.225 1409.89625 332.25 1408.8125 C302.7194663 1397.35668951 273.8940628 1383.99494933 246 1369 C243.97488281 1367.91976563 241.94976563 1366.83953125 239.86328125 1365.7265625 C230.01394004 1360.44214002 220.38183404 1355.08551397 211 1349 C207.65875 1346.8653125 207.65875 1346.8653125 204.25 1344.6875 C190.5443168 1335.8260669 177.1805679 1326.61725254 164 1317 C161.999375 1315.55625 159.99875 1314.1125 157.9375 1312.625 C147.67964289 1305.09391503 137.85944355 1297.04014146 128 1289 C126.06125 1287.4325 124.1225 1285.865 122.125 1284.25 C116.9544378 1279.96221671 111.96983016 1275.51802742 107 1271 C103.06884764 1267.5181222 99.20058754 1264.15044065 95 1261 C95 1260.34 95 1259.68 95 1259 C93.68 1258.34 92.36 1257.68 91 1257 C82.16587118 1249.43362082 74.01957517 1241.1687018 65.8125 1232.9375 C64.48541016 1231.61427734 63.15832031 1230.29105469 61.79101562 1228.92773438 C55.65183083 1222.78239501 49.62605719 1216.61976982 44 1210 C42.06125 1207.916875 40.1225 1205.83375 38.125 1203.6875 C32.85210841 1197.93036326 27.90730432 1192.06597339 23 1186 C21.040625 1183.73125 19.08125 1181.4625 17.0625 1179.125 C11.47709206 1172.56070613 6.21226082 1165.86171045 1 1159 C-0.77375 1156.7725 -2.5475 1154.545 -4.375 1152.25 C-13.46446396 1140.5346909 -21.83713486 1128.37595683 -30 1116 C-31.505625 1113.7725 -33.01125 1111.545 -34.5625 1109.25 C-45.37395379 1092.84641494 -55.54861831 1076.21964062 -65 1059 C-66.36125 1056.81375 -67.7225 1054.6275 -69.125 1052.375 C-73.54283202 1045.10695377 -77.24208536 1037.62970548 -81 1030 C-82.72066076 1026.72468404 -84.45003557 1023.45393313 -86.1875 1020.1875 C-89.69832799 1013.54524857 -92.96247297 1006.87440329 -96 1000 C-97.134375 997.669375 -98.26875 995.33875 -99.4375 992.9375 C-113.35931976 963.40955714 -125.5210076 932.4767024 -135.0625 901.25 C-136.22905781 897.48691028 -137.47634243 893.7456316 -138.875 890.0625 C-141.44726053 882.72399201 -143.42946968 875.29128339 -145.4375 867.78125 C-146.85367253 862.54141163 -148.34890401 857.33363198 -149.875 852.125 C-157.36969927 826.05133569 -163.73672583 799.5559326 -168.625 772.875 C-169.21539062 769.67554688 -169.80578125 766.47609375 -170.4140625 763.1796875 C-171.80463797 755.13079007 -172.95685429 747.09944693 -174 739 C-174.474375 736.339375 -174.94875 733.67875 -175.4375 730.9375 C-178.9260509 710.98298883 -180.82323887 691.0866954 -182.3515625 670.90625 C-182.86551159 663.29374254 -182.86551159 663.29374254 -184 657 C-184.36905001 651.93997832 -184.69609142 646.87685158 -185 641.8125 C-185.165 639.11707031 -185.33 636.42164063 -185.5 633.64453125 C-186.65766128 611.31433048 -187.15893883 589.04753004 -187.125 566.6875 C-187.12886719 564.15126953 -187.13273438 561.61503906 -187.13671875 559.00195312 C-187.11902925 524.2332373 -185.66424179 489.58128187 -182 455 C-181.7525 451.7825 -181.505 448.565 -181.25 445.25 C-179.67442065 427.73253505 -176.72846661 410.3674675 -174 393 C-173.608125 390.45796875 -173.21625 387.9159375 -172.8125 385.296875 C-167.19131243 350.08638066 -159.69612979 315.31586805 -150 281 C-149.4942041 279.20965332 -148.9884082 277.41930664 -148.46728516 275.57470703 C-141.77810267 252.08213523 -134.6166407 228.86896937 -126 206 C-125.41379883 204.43749512 -124.82759766 202.87499023 -124.22363281 201.26513672 C-110.05860828 163.67949057 -94.04576073 126.86219258 -74 92 C-72.80375 89.855 -71.6075 87.71 -70.375 85.5 C-60.64335148 68.81717396 -50.32137543 52.64639525 -39 37 C-36.89625 34.0609375 -36.89625 34.0609375 -34.75 31.0625 C-30.95312241 25.93671525 -27.00023086 20.96802865 -23 16 C-21.02 13.36 -19.04 10.72 -17 8 C-14.710625 5.215625 -14.710625 5.215625 -12.375 2.375 C-7.88202728 -2.9710279 -7.88202728 -2.9710279 -4 -9 C8.62535931 -21.62535931 7.93442426 -10.57923234 0 0 Z " transform="translate(364,653)" style="fill: #FCB002;"/></svg>